<svg width="16" height="16" viewBox="0 0 16 16" xmlns="http://www.w3.org/2000/svg" xmlns:xlink="http://www.w3.org/1999/xlink">
    <title>safaripin</title>
    <defs>
        <path d="M7.99 15.98c4.412 0 7.99-3.578 7.99-7.99C15.98 3.577 12.401 0 7.99 0 3.577 0 0 3.577 0 7.99c0 4.412 3.577 7.99 7.99 7.99zm-.094-3.942c-2.15-.072-3.871-1.838-3.871-4.006 0-2.2 1.807-4.007 4.007-4.007 2.168 0 3.934 1.72 4.006 3.87.002.077.065.137.142.137h1.165c.08 0 .145-.066.143-.146-.078-2.946-2.49-5.31-5.456-5.31-3.019 0-5.457 2.437-5.457 5.456 0 2.965 2.365 5.378 5.31 5.456.081.002.147-.062.147-.143V12.18c0-.077-.06-.14-.136-.142zm.136-7.16c-1.747 0-3.155 1.407-3.155 3.154 0 1.693 1.333 3.074 3.007 3.152.08.004.148-.061.148-.142v-.925c0-.073-.059-.137-.132-.142-1.013-.068-1.815-.912-1.815-1.943 0-1.076.87-1.947 1.947-1.947 1.031 0 1.875.802 1.943 1.815.005.073.069.132.142.132h.925c.08 0 .146-.067.142-.148-.078-1.674-1.459-3.007-3.152-3.007z" id="a"/>
    </defs>
    <use fill="#000" xlink:href="#a" fill-rule="evenodd"/>
</svg>